{"asset":{"version":"2.0","generator":"Pelican WP101 animgraph demo"},"scene":0,"scenes":[{"nodes":[0]}],"nodes":[{"name":"DemoMesh","mesh":0,"skin":0,"children":[1]},{"name":"RootJoint","children":[2]},{"name":"TipJoint","translation":[0,1,0]}],"skins":[{"name":"TwoBone","joints":[1,2],"inverseBindMatrices":6}],"meshes":[{"name":"Body","primitives":[{"attributes":{"POSITION":0,"NORMAL":1,"TEXCOORD_0":2,"JOINTS_0":3,"WEIGHTS_0":4},"indices":5,"material":0}]}],"materials":[{"name":"DemoOrange","pbrMetallicRoughness":{"baseColorFactor":[1,0.35,0.08,1],"metallicFactor":0,"roughnessFactor":1}}],"animations":[{"name":"Walk","samplers":[{"input":7,"output":8,"interpolation":"LINEAR"}],"channels":[{"sampler":0,"target":{"node":2,"path":"rotation"}}]},{"name":"Run","samplers":[{"input":7,"output":9,"interpolation":"LINEAR"}],"channels":[{"sampler":0,"target":{"node":2,"path":"rotation"}}]},{"name":"Jump","samplers":[{"input":7,"output":10,"interpolation":"LINEAR"}],"channels":[{"sampler":0,"target":{"node":1,"path":"translation"}}]}],"bufferViews":[{"buffer":0,"byteOffset":0,"byteLength":48},{"buffer":0,"byteOffset":48,"byteLength":48},{"buffer":0,"byteOffset":96,"byteLength":32},{"buffer":0,"byteOffset":128,"byteLength":32},{"buffer":0,"byteOffset":160,"byteLength":64},{"buffer":0,"byteOffset":224,"byteLength":12},{"buffer":0,"byteOffset":236,"byteLength":128},{"buffer":0,"byteOffset":364,"byteLength":20},{"buffer":0,"byteOffset":384,"byteLength":80},{"buffer":0,"byteOffset":464,"byteLength":80},{"buffer":0,"byteOffset":544,"byteLength":60}],"accessors":[{"bufferView":0,"componentType":5126,"count":4,"type":"VEC3","min":[-0.3,0,0],"max":[0.3,2,0]},{"bufferView":1,"componentType":5126,"count":4,"type":"VEC3"},{"bufferView":2,"componentType":5126,"count":4,"type":"VEC2"},{"bufferView":3,"componentType":5123,"count":4,"type":"VEC4"},{"bufferView":4,"componentType":5126,"count":4,"type":"VEC4"},{"bufferView":5,"componentType":5123,"count":6,"type":"SCALAR"},{"bufferView":6,"componentType":5126,"count":2,"type":"MAT4"},{"bufferView":7,"componentType":5126,"count":5,"type":"SCALAR","min":[0],"max":[1]},{"bufferView":8,"componentType":5126,"count":5,"type":"VEC4"},{"bufferView":9,"componentType":5126,"count":5,"type":"VEC4"},{"bufferView":10,"componentType":5126,"count":5,"type":"VEC3"}],"buffers":[{"byteLength":604,"uri":"data:application/octet-stream;base64,"}]}
